<svg width="5552" height="3680" xmlns="http://www.w3.org/2000/svg">
<g transform="scale(1.0)">
<g id="180643331" order="1" parent_id="" graphic_group_label_id="28" graphic_group_label="Atlas - Adult Mouse" sub_image_id="100960098" transform=" scale(1.0, 1.0)"><path id="180643333" parent_id="180643331" order="0" structure_id="8" d="M2763.762,1336.286
			c0.225-2.171,63.485,1.348,87.91-4.101c59.103-13.182,117.583-41.95,177.864-57.835c74.865-19.735,151.46-33.708,224.72-58.804
			c213.766-73.22,503.957-215.228,778.271-238.814c310.743-26.717,614.656,111.384,772.832,429.811
			c132.693,267.146,165.926,546.746,70.258,834.824c-152.285,458.546-516.599,669.511-892.684,648.847
			c-90.92-4.995-306.592,35.089-421.543,45.461c-212.34,19.163-389.781,59.054-557.928,41.329
			c-75.262-7.936-177.709,12.396-247.967-45.462L2763.762,1336.286z" style="stroke:black;fill:#bfdae3"/><path id="180643334" parent_id="180643331" order="1" structure_id="354" d="M4805.359,1406.543
			c-158.176-318.426-462.089-456.527-772.832-429.811c-274.314,23.586-564.506,165.594-778.271,238.814
			c-73.26,25.096-149.854,39.069-224.72,58.804c-60.281,15.885-118.762,44.653-177.864,57.835
			c-24.425,5.448-87.685,1.929-87.91,4.101l-2.712,523.498c22.074,2.16,53.889,9,44.71,38.456
			c-6.197,19.885-30.639,41.699-45.205,56.989l-5.059,976.313c70.258,57.858,172.705,37.526,247.967,45.462
			c168.146,17.725,345.588-22.166,557.928-41.329c114.951-10.372,330.623-50.456,421.543-45.461
			c376.085,20.664,740.398-190.301,892.684-648.847C4971.285,1953.289,4938.053,1673.689,4805.359,1406.543z" style="stroke:black;fill:#ff9bcd"/><path id="180643336" parent_id="180643331" order="2" structure_id="711" d="M3463.575,1547.534
			c-43.079,14.497-216.672,52.717-234.874-17.007c-10.01-38.697,71.322-121.877,101.251-142.582
			c73.819-51.039,220.339-96.895,310.187-96.225c71.445,0.533,94.94,36.792,58.748,93.843
			C3651.399,1460.431,3549.959,1518.468,3463.575,1547.534z" style="stroke:black;fill:#ffa5d2"/><path id="180643335" parent_id="180643331" order="3" structure_id="1039" d="M3276.251,1210.93
			c0.639,119.278,6.837,277.155-136.236,310.032c-117.64,27.04-213.153-94.432-244.005-197.074l-0.095-4.06
			c44.209-14.4,88.41-33.563,133.621-45.477c74.865-19.735,151.46-33.708,224.72-58.804c7.49-2.567,15.07-5.214,22.746-7.942
			L3276.251,1210.93z" style="stroke:black;fill:#ffa5d2"/><path id="180643340" parent_id="180643331" order="4" structure_id="666" d="M2884.99,1553.96
			c11.46,37.32,14.52,86.47-11.021,118.47l-2.029,2.72c-37.061-1.7-71.45,1.793-109.44,6.684l0.667-160.667
			c28.63,8.59,74.633,45.593,105.433,37.764c5.881-1.49,10.99-4.21,15.5-7.8L2884.99,1553.96z" style="stroke:black;fill:#ffa5d2"/><path id="180643339" parent_id="180643331" order="5" structure_id="682" d="M3247.06,1658.92
			c2.551,38.06,2.431,132.43-39.88,150.17c-36.439,15.29-96.83-24.29-151.899-62.25l-2.221-11.04
			c-7.119-37.06,4.07-81.46,23.41-112.96c20.221-25.59,43.13-48.18,66.82-66.53C3196.33,1570.03,3242.51,1591.04,3247.06,1658.92z" style="stroke:black;fill:#ffa5d2"/><path id="180643338" parent_id="180643331" order="6" structure_id="691" d="M3143.29,1556.31
			c-23.69,18.35-46.6,40.94-66.82,66.53c-19.34,31.5-30.529,75.9-23.41,112.96l2.221,11.04c-36.971-25.48-71.55-50.24-94.86-57.18
			c-29.56-8.81-58.96-13.17-88.479-14.51l2.029-2.72c25.54-32,22.48-81.15,11.021-118.47l-0.891-2.83
			c32.681-26.01,33.44-97.89,59.44-82.6c70.26,41.33,109.52,66.48,153.21,76.82C3112.28,1549.03,3128.07,1552.36,3143.29,1556.31z" style="stroke:black;fill:#ffa5d2"/><path id="180643337" parent_id="180643331" order="7" structure_id="429" d="M4436.992,2648.656
			c-31.31,13.778-65.535,18.613-110.657,6.222c-85.206-23.406-162.429-93.544-183.237-180.687
			c-9.235-38.656-13.036-98.775,1.291-136.778c43.991-116.679,89.605-210.868,80.759-341.899
			c-6.208-91.913-58.569-199.237-126.899-261.27c-84.18-76.424-182.31-106.193-249.227-204.104
			c-67.52-98.791-106.492-183.917-39.794-293.904c0,0,89.177-94.505,148.91-141.717c123.992-98,602.869,0.355,764.566,382.283
			c73.72,174.126,135.445,426.396,88.242,647.508c-43.314,202.741-139.975,367.286-274.911,460.281
			C4500.018,2609.411,4470.145,2634.055,4436.992,2648.656z" style="stroke:black;fill:#ffa5d2"/><path id="180643342" parent_id="180643331" order="8" structure_id="839" d="M3070.969,1777.122
			c27.419-42.651-146.643-72.55-171.601-71c-128.495,7.983-61.71,112.893,32.529,111.368
			C2958.382,1817.062,3046.173,1815.689,3070.969,1777.122z" style="stroke:black;fill:#ffb3d9"/><path id="180643344" parent_id="180643331" order="9" structure_id="136" d="M4195.09,2140.81l16.62,4.351
			c-15.65,64.25-41.76,124.45-67.32,192.25c-14.14,37.52-10.63,96.58-1.64,135.27l-6.9,0.12
			c-67.13-12.34-112.39-69.229-152.92-114.34c-51.359-57.17-342.17-242.8-418.779-294.8
			c-114.69-77.851-252.011-147.561-378.061-211.93c5.8-5.9,14.24-14.59,26.41-27.23c27.57-28.63,38.27-56.14,41.65-85.21l9.68,4.77
			C3569,1881.56,3882.68,2024.98,4195.09,2140.81z" style="stroke:black;fill:#ffb3d9"/><path id="180643343" parent_id="180643331" order="10" structure_id="1098" d="M4225.15,1995.51
			c3.699,54.9-2.15,103.33-13.44,149.65l-16.62-4.351c-312.41-115.829-626.09-259.25-931.26-396.75l-9.68-4.77
			c2.989-25.75,0.229-52.73-1.65-82.79c-2.98-47.72,16.27-68.75,73.52-85.49c54.011-1.16,114.49-15.71,137.561-23.48
			c71.91-24.19,154.27-68.47,207.229-125.83c41.921-23.48,82.53-24.45,140.061,47.46c10.97,19.96,23.92,40.17,38.149,60.98
			c66.921,97.91,165.051,127.68,249.23,204.1C4166.58,1796.28,4218.94,1903.6,4225.15,1995.51z" style="stroke:black;fill:#ffb3d9"/><path id="180643345" parent_id="180643331" order="11" structure_id="1107" d="M4150.1,2497.42
			c-2.77-7.59-5.119-15.34-7-23.229c-0.119-0.5-0.239-1-0.35-1.511l-6.9,0.12c-67.13-12.34-112.39-69.229-152.92-114.34
			c-51.359-57.17-342.17-242.8-418.779-294.8c-114.69-77.851-252.011-147.561-378.061-211.93c-14.67-7.5-29.18-14.911-43.479-22.26
			c-44.11-22.97-62.11-44.97-126.11-4.97s-152,2-198,86c-18.7,33.39,2.74,74.8,19.04,98.64c56.2-28.04,144.02-13.359,183.42,20.061
			c76.39,64.77,96.42,186.92-40.229,160.51c-15.82-3.06-39-3.15-63.561-3.45c12.714,16.156,39.414,12.795,60.717,17.738
			c10.659,2.474,19.968,7.026,25.497,17.144c10.817,19.794,3.498,44.138-5.504,85.694c-8.319,38.406-21.168,75.219-11.386,99.137
			c25.018,61.167,34.397,77.502,111.867,186.397c18.494,25.996,35.064,48.144,62.494,94.135
			c16.513,27.687,23.56,39.671,43.946,58.651c39.378,82.777,232.547,150.926,286.347,149.458
			c90.518-2.471,172.156-30.963,256.186-64.066c25.297-9.97,122.565-32.431,209.334-58.936
			c30.275,10.957,68.376,14.938,115.832,4.888C4214.62,2746.4,4168.04,2589.11,4150.1,2497.42z" style="stroke:black;fill:#ffb3d9"/><path id="180643341" parent_id="180643331" order="12" structure_id="773" d="M3020.964,2029.197
			c76.384,64.777,96.417,186.92-40.232,160.51c-43.264-8.354-141.643,5.447-172.622-23.313
			c-17.688-16.409-21.456-100.009-9.994-120.722C2837.741,1974.084,2969.94,1985.924,3020.964,2029.197z" style="stroke:black;fill:#ffb3d9"/><path id="180643347" parent_id="180643331" order="13" structure_id="1009" d="M2755.642,2931.655
			c0,0,1.21-220.516,1.387-250.793c0.816-136.77,1.728-273.547,2.503-410.317c0.186-32.423,0.436-64.84,0.178-97.265
			c41.247,20.56,80.613,15.385,134.235,22.625c26.436,3.576,107.59-0.46,113.651,35.129c3.302,19.373-11.922,81.325-18.597,99.188
			c-44.565,119.415,133,262.618,176.159,365.808c51.717,123.646,182.966,180.883,308.669,195.591
			c115.226,13.486,215.697-46.414,323.084-79.024c91.575-27.816,200.288-31.852,296.85-17.677
			c84.173,12.35,125.283,38.761,204.146-3.326c95.328-50.886,153.56-146.98,241.122-207.406
			c135.463-93.479,232.501-258.873,275.976-462.672c47.406-222.259-22.423-469.685-96.433-644.714
			c-162.333-383.906-647.695-477.814-772.17-379.305c-104.41,82.632-123.338,175.296-268.406,177.711
			c-55.905,0.928-107.559-1.865-162.535,12.091c-46.372,11.761-95.87,47.987-142.961,52.088
			c-107.678,9.387-58.424-84.173-26.016-154.632l3.27-4.06c200.432-76.345,447.447-183.731,682.773-203.96
			c11.979-1.033,23.949-1.816,35.904-2.356c298.061-13.44,584.855,126.019,736.928,432.167
			c132.693,267.146,165.926,546.746,70.258,834.824c-152.285,458.546-516.599,669.511-892.684,648.847
			c-90.92-4.995-306.592,35.089-421.543,45.461c-212.34,19.163-389.781,59.054-557.928,41.329
			c-75.262-7.936-177.709,12.396-247.967-45.462" style="stroke:black;fill:#cccccc"/><path id="180643348" parent_id="180643331" order="14" structure_id="1009" d="M2763.762,1336.286
			c0.227-2.171,63.485,1.348,87.91-4.101c7.718-1.719,15.426-3.705,23.136-5.892l3.082,2.275
			c19.809,6.596,38.883,66.021,26.87,128.262c-11.655,60.417-11.768,109.471-78.337,80.008
			c-26.694-11.817-30.505-36.164-63.923-39.005L2763.762,1336.286z" style="stroke:black;fill:#cccccc"/><path id="180643349" parent_id="180643331" order="15" structure_id="1009" d="M3046.099,1593.931
			c30.826-34.41,64.285-13.043,78.846,23.521C3119.181,1640.046,3036.356,1604.804,3046.099,1593.931z" style="stroke:black;fill:#cccccc"/><path id="180643346" parent_id="180643331" order="16" structure_id="164" d="M2761.05,1859.783
			c-0.016-0.002-0.033-0.003-0.049-0.005l-0.446,95.45c0.302-0.32-0.311,0.326,0,0c14.566-15.29,39.007-37.104,45.205-56.989
			C2814.938,1868.783,2783.124,1861.943,2761.05,1859.783z" style="stroke:black;fill:#aaaaaa"/></g>
</g>
</svg>